<?xml version="1.0" encoding="UTF-8" standalone="no"?>
<!-- Created with Inkscape (http://www.inkscape.org/) -->

<svg
   version="1.1"
   id="svg1"
   width="1356"
   height="1485"
   viewBox="0 0 1356 1485"
   sodipodi:docname="logo2.svg"
   inkscape:version="1.4.2 (ebf0e940, 2025-05-08)"
   xmlns:inkscape="http://www.inkscape.org/namespaces/inkscape"
   xmlns:sodipodi="http://sodipodi.sourceforge.net/DTD/sodipodi-0.dtd"
   xmlns="http://www.w3.org/2000/svg"
   xmlns:svg="http://www.w3.org/2000/svg">
  <defs
     id="defs1" />
  <sodipodi:namedview
     id="namedview1"
     pagecolor="#ffffff"
     bordercolor="#000000"
     borderopacity="0.25"
     inkscape:showpageshadow="2"
     inkscape:pageopacity="0.0"
     inkscape:pagecheckerboard="0"
     inkscape:deskcolor="#d1d1d1"
     showgrid="false"
     inkscape:zoom="1.2996633"
     inkscape:cx="678.25259"
     inkscape:cy="742.88472"
     inkscape:window-width="1920"
     inkscape:window-height="2106"
     inkscape:window-x="1920"
     inkscape:window-y="25"
     inkscape:window-maximized="0"
     inkscape:current-layer="g1" />
  <g
     inkscape:groupmode="layer"
     inkscape:label="Image"
     id="g1">
    <g
       id="g2">
      <path
         style="fill:#f3b9b7"
         d="m 671,1484.428 c -1.375,-0.2149 -12.625,-0.8324 -25,-1.372 -116.64092,-5.0869 -248.02382,-47.8562 -350.63723,-114.1434 -41.6657,-26.9157 -71.84002,-51.3674 -108.45088,-87.8832 C 133.46868,1227.725 97.110951,1177.0834 63.94475,1109.7522 27.16778,1035.0906 5.1271601,949.83826 1.0558161,866.5 -3.478346,773.6881 5.9977482,697.29161 31.087135,624.38682 66.615536,521.14832 123.51151,441.28982 205.81686,379.1383 256.97398,340.50784 312.91708,314.43989 387.5,294.47892 c 5.5,-1.47199 10.32445,-2.97888 10.72101,-3.34864 1.53195,-1.42845 -55.68263,-26.60336 -88.01085,-38.72554 -15.65103,-5.86869 -18.24802,-7.13752 -18,-8.79437 0.57482,-3.83991 46.71763,-25.45648 75.07449,-35.17023 16.92196,-5.79668 41.43455,-11.88483 58.44507,-14.51591 19.20655,-2.97075 62.52765,-3.78087 83.46503,-1.56084 50.45418,5.34975 107.90281,25.03647 151.13446,51.79133 4.30606,2.66491 8.08731,4.84528 8.40279,4.84528 0.90452,0 -0.50404,-20.50003 -2.16499,-31.50882 C 661.04995,180.924 651.5125,149.69012 634.50733,112.5 621.98313,85.109715 621.27449,81.140133 626.10406,65.42787 c 7.003,-22.783187 36.79904,-46.416194 74.37211,-58.988927 23.02502,-7.7046528 57.46037,-8.4264278 73.04836,-1.5311153 7.14047,3.1585685 15.73202,9.6561963 19.77096,14.9524113 13.40448,17.577105 24.31817,63.34017 28.17427,118.139761 1.83036,26.01147 1.90733,79.84481 0.15156,106 -0.68304,10.175 -1.1448,18.64496 -1.02613,18.82214 0.11867,0.17718 5.53576,-1.78197 12.03798,-4.35367 41.96532,-16.59773 93.44817,-29.7645 138.36683,-35.3874 41.0689,-5.14099 48.6073,-5.53171 107.2145,-5.55701 50.6578,-0.0219 55.8655,0.12701 57.3788,1.64045 1.5524,1.55263 1.1565,2.63972 -5.8906,16.17337 -25.0854,48.17545 -58.3006,88.90832 -96.9112,118.84555 -7.3181,5.67411 -13.5274,10.73882 -13.7985,11.25491 -0.2712,0.51608 2.207,2.01595 5.507,3.33303 13.1101,5.23247 29.8793,12.92791 47.5,21.79793 97.4911,49.07563 176.5483,127.8636 224.8004,224.03481 28.7426,57.28685 48.8296,125.21368 55.5636,187.89589 2.0452,19.03728 4.0438,70.97707 3.283,85.31949 -0.3408,6.42428 -0.8854,19.10551 -1.2102,28.18051 -1.6822,46.98922 -13.8518,105.4298 -32.8545,157.7733 -30.9739,85.3183 -79.517,161.4211 -143.5823,225.0989 -67.4683,67.0602 -143.0809,114.8897 -232.5,147.0703 -56.07647,20.181 -123.74771,34.2901 -178.33826,37.1826 -19.20234,1.0174 -91.70344,1.9998 -96.16174,1.3029 z"
         id="path6" />
      <path
         style="fill:#41a954"
         d="m 676,1484.2958 c -51.82396,-2.3173 -105.34693,-9.1566 -146.88665,-18.7696 C 424.07569,1441.2188 324.72595,1394.3989 245,1331.6339 208.36945,1302.7962 168.00236,1262.5709 137.48833,1224.5 66.470085,1135.8939 19.360295,1023.2067 5.5910471,909 1.2129682,872.68677 0.08062518,852.17075 0.5132812,817 1.1921838,761.81178 6.8989269,716.84424 19.505326,667.34797 44.192488,570.41923 93.057122,484.18415 159.73729,419.87013 c 61.00402,-58.8393 129.36728,-96.89861 218.80482,-121.81337 11.99558,-3.34162 22.03839,-6.30393 22.31735,-6.58289 0.95066,-0.95066 -1.35985,-2.20506 -18.85946,-10.23904 -24.87498,-11.41996 -49.62454,-21.82817 -70.76977,-29.7616 -10.04838,-3.77003 -18.12461,-7.33129 -17.94719,-7.91391 0.72476,-2.37995 33.88654,-18.28938 59.4044,-28.49938 24.792,-9.91958 51.0907,-16.86919 78.31256,-20.69464 17.85136,-2.50863 68.247,-2.53999 86,-0.0535 27.60019,3.86566 59.83142,12.32791 85,22.31661 17.73469,7.0384 46.27543,21.26994 58.91118,29.37543 4.28373,2.7479 8.33708,4.99618 9.00744,4.99618 0.91202,0 1.05663,-2.07674 0.57448,-8.25 -2.62494,-33.60859 -9.53058,-65.45804 -21.14096,-97.50404 C 644.7414,132.51978 642.79244,127.8708 631.0128,101.5 l -6.2537,-14 0.46951,-9.775292 c 0.43216,-8.997912 0.80219,-10.446694 4.653,-18.217939 10.52914,-21.248707 38.25393,-41.297933 72.48797,-52.41981 28.58053,-9.2851776 53.24843,-9.2834462 72.4385,0.00508 15.32465,7.4175536 22.37719,16.9584866 30.21135,40.8710096 8.41736,25.692607 13.62083,59.361107 16.07895,104.036947 1.2808,23.2785 0.70186,77.5061 -1.05617,98.92781 -0.56096,6.83529 -0.79956,12.64818 -0.53021,12.91752 0.63936,0.63936 3.54982,-0.3498 24.488,-8.32259 67.562,-25.72607 141.92708,-37.668 233,-37.41636 30.4525,0.0841 56.5221,1.08233 57.647,2.20725 2.038,2.03807 -19.5113,39.93019 -36.3323,63.88654 -18.7837,26.75145 -50.5688,58.6205 -77.5647,77.76954 -2.6125,1.85313 -4.747,3.63055 -4.7434,3.94981 0,0.31926 7.3161,3.66338 16.25,7.43137 17.9985,7.59114 48.5792,22.66161 64.7434,31.90626 22.1796,12.68494 53.1174,34.24675 71.9261,50.12813 82.8841,69.9844 138.5699,159.08001 167.5749,268.11472 7.6678,28.82494 12.6163,57.09746 16.1899,92.5 2.2371,22.16107 2.5361,90.06556 0.4889,111 -9.2091,94.1718 -37.4628,177.8277 -87.9803,260.5 -34.4491,56.3761 -84.619,112.7612 -139.5355,156.8216 -90.0971,72.2864 -201.00471,118.6676 -320.664,134.1006 -38.68558,4.9895 -93.2309,7.4731 -129,5.8736 z M 197.08061,927.86998 c 5.2255,-2.24795 13.28659,-10.07539 14.98989,-14.55541 3.0717,-8.07918 3.1418,-11.8521 0.52071,-28.02689 -4.07634,-25.15524 -4.89166,-38.08607 -4.27415,-67.78768 0.95396,-45.88447 8.02453,-84.40751 23.03444,-125.5 12.45335,-34.09341 34.98585,-75.85603 58.05019,-107.59249 9.68088,-13.32086 12.21767,-19.53018 11.26505,-27.57353 -1.85336,-15.64878 -13.73428,-26.32956 -29.16674,-26.2205 -12.51563,0.0884 -17.65644,3.86211 -31.78356,23.33103 -35.60559,49.06892 -60.87557,101.14553 -75.69901,156.0012 C 148.22042,768.40416 144.3086,826.42563 152.41751,882 c 4.16005,28.51085 6.19023,34.70258 13.56235,41.36284 8.57587,7.74779 19.78991,9.37293 31.10075,4.50714 z"
         id="path5" />
      <path
         style="fill:#ea2924"
         d="m 667.95298,1483.6197 c -0.26816,-0.2682 -7.22978,-0.9854 -15.47027,-1.5938 -72.09767,-5.323 -130.57388,-16.671 -193.14105,-37.4816 C 326.86046,1400.4796 216.00351,1323.4949 134.56077,1219 72.017948,1138.7546 30.314465,1045.0327 12.086642,943.7592 7.6176215,918.92939 6.4871457,909.78981 1.9119914,861.5 0.55376711,847.16422 1.1777656,791.00263 2.8841837,774 9.6260565,706.82446 20.041513,659.38346 39.194292,608.61233 75.180932,513.21716 129.53626,439.49546 207.03122,380.97642 c 49.48104,-37.36478 103.76844,-63.01133 174.74985,-82.55564 15.85347,-4.36516 21.20938,-6.22401 21,-7.28837 -0.49373,-2.50976 -53.851,-26.50409 -85.78107,-38.57506 -22.48783,-8.50138 -22.22515,-8.38403 -21.47669,-9.59507 0.96702,-1.56467 31.06273,-16.00841 47.97669,-23.0253 31.1732,-12.93246 57.23724,-20.162 88.61236,-24.57896 17.66699,-2.48713 66.23662,-2.51248 83.88764,-0.0438 23.96352,3.35159 57.76655,11.77748 78.26415,19.50848 25.50028,9.61784 52.29994,22.75071 68.76981,33.69986 3.81608,2.53692 7.4381,4.3037 8.04894,3.92619 2.18032,-1.34752 -1.33095,-33.90769 -6.16561,-57.17401 -5.59675,-26.93377 -14.33903,-52.88407 -27.84855,-82.66467 C 625.5812,87.28678 625.71825,87.72631 626.27741,78 627.09096,63.848664 632.45513,53.275232 645.20325,40.694893 665.17658,20.984423 703.01684,4.2503199 735,0.98406596 755.45636,-1.1050228 776.88997,5.8556005 789.27983,18.611587 804.62223,34.40735 816.39965,85.764888 820.09808,153 c 1.28824,23.41932 0.73078,72.68739 -1.0965,96.90731 -0.63967,8.4787 -0.71864,14.77563 -0.1919,15.30237 0.52674,0.52674 6.20243,-1.22517 13.79269,-4.25737 38.79746,-15.49906 88.24829,-28.63277 129.89763,-34.49969 41.0255,-5.77904 93.6239,-8.3518 140.6672,-6.88048 16.317,0.51032 29.9663,1.22718 30.3319,1.59302 1.7702,1.77169 -21.6054,42.38364 -35.879,62.33484 -20.3678,28.46954 -50.84,58.95924 -77.3322,77.37658 -2.8666,1.99288 -5.2188,4.29842 -5.2272,5.12342 -0.01,0.99886 4.9051,3.50292 14.7121,7.49508 20.4696,8.33268 56.7243,26.50963 75.3388,37.77255 68.1433,41.23081 125.2269,97.33035 167.1132,164.23237 39.7006,63.41102 67.0267,141.14592 76.8092,218.5 5.0482,39.91854 6.9939,81.198 5.0368,106.85882 -3.968,52.02735 -7.5764,76.11948 -17.1086,114.22958 -11.286,45.1222 -25.0288,82.1399 -46.1878,124.4116 -25.8272,51.598 -61.5802,102.8566 -99.7106,142.9539 -86.1365,90.5795 -188.5252,150.25 -309.5638,180.4086 -37.83335,9.4268 -68.31483,14.2675 -118.5,18.8189 -17.45985,1.5835 -93.84413,3.1411 -95.04702,1.9383 z M 197.08061,927.86998 c 5.2255,-2.24795 13.28659,-10.07539 14.98989,-14.55541 3.0717,-8.07918 3.1418,-11.8521 0.52071,-28.02689 -4.07634,-25.15524 -4.89166,-38.08607 -4.27415,-67.78768 0.95396,-45.88447 8.02453,-84.40751 23.03444,-125.5 12.45335,-34.09341 34.98585,-75.85603 58.05019,-107.59249 9.68088,-13.32086 12.21767,-19.53018 11.26505,-27.57353 -1.85336,-15.64878 -13.73428,-26.32956 -29.16674,-26.2205 -12.51563,0.0884 -17.65644,3.86211 -31.78356,23.33103 -35.60559,49.06892 -60.87557,101.14553 -75.69901,156.0012 C 148.22042,768.40416 144.3086,826.42563 152.41751,882 c 4.16005,28.51085 6.19023,34.70258 13.56235,41.36284 8.57587,7.74779 19.78991,9.37293 31.10075,4.50714 z M 889.30135,638.92142 C 890.5279,632.3866 889.33574,592.11919 887.55692,580 884.21873,557.25668 874.55836,525.18936 864.20982,502.5 848.22057,467.44324 824.89999,433.5283 790.25,394.9408 785.1625,389.27517 781,384.32322 781,383.93646 c 0,-1.06071 3.95968,-1.90733 9,-1.9243 6.50722,-0.0219 36.51417,-3.61318 50.41721,-6.03402 15.82346,-2.75523 38.959,-8.79132 55.58279,-14.50163 47.13541,-16.19112 83.82545,-38.36405 123,-74.33273 9.4698,-8.69484 8.9025,-8.93393 -16.2421,-6.84477 -41.52341,3.45001 -79.13714,10.64114 -116.7579,22.32218 -41.34372,12.83701 -85.48974,35.22376 -124.20528,62.98535 -6.43791,4.6164 -12.17541,8.39346 -12.75,8.39346 -1.52047,0 -1.3519,-2.29239 1.87521,-25.50076 9.58913,-68.96196 12.63817,-111.53328 11.78053,-164.48179 C 762.1281,148.68191 760.79081,131.08099 756.92476,108 754.71175,94.787946 747.82411,66.408384 746.0062,63.011584 c -2.22458,-4.15666 -22.6567,-1.678911 -36.44705,4.419836 -6.57508,2.907815 -20.47219,12.178384 -21.23466,14.165352 -0.30758,0.801555 2.832,9.432689 6.97686,19.180298 18.73878,44.06868 28.91162,85.00801 33.84947,136.22293 1.518,15.74459 1.46532,64.02943 -0.09,82.5 -1.9673,23.36286 -7.28136,56.5 -9.06066,56.5 -0.45877,0 -3.90137,-3.9375 -7.6502,-8.75 C 703.49011,355.87636 683.03227,334.86815 671,324.78762 658.54596,314.35374 642.58434,303.11202 626.5,293.4464 580.72493,265.93865 525.39567,249.9559 476.14405,250.01365 c -16.93213,0.0199 -19.89322,1.39126 -11.5719,5.3594 6.50398,3.10152 33.18714,19.37097 44.92785,27.39374 20.95193,14.31706 35.92924,26.59854 62.39029,51.16043 C 583.56553,344.7645 611,374.25506 611,375.96803 c 0,0.52518 -1.9125,1.4448 -4.25,2.04359 -39.12928,10.02359 -66.32771,20.5909 -94.81743,36.83908 -35.31565,20.14113 -61.49334,42.85739 -81.47186,70.69898 C 423.97631,494.58619 417,506.75298 417,509.02536 c 0,1.54615 9.41974,0.81958 34,-2.62252 68.30812,-9.56553 121.04366,-22.79372 174,-43.64621 18.39145,-7.24195 56.46636,-26.08217 70.40116,-34.83589 6.85729,-4.30769 10.31251,-5.94327 11.23924,-5.32028 0.73594,0.49475 6.10741,10.57454 11.9366,22.39954 11.42731,23.18128 19.47419,37.19363 31.29773,54.5 8.21733,12.0279 28.23046,38.49444 36.296,48 10.60499,12.49839 35.56515,38.99591 48.1974,51.166 19.65036,18.93144 51.12613,45.58334 53.11761,44.97698 0.54216,-0.16508 1.35918,-2.28978 1.81561,-4.72156 z"
         id="path4" />
      <path
         style="fill:#d02824"
         d="m 667.95298,1483.6197 c -0.26816,-0.2682 -7.22978,-0.9854 -15.47027,-1.5938 -72.09767,-5.323 -130.57388,-16.671 -193.14105,-37.4816 C 326.86046,1400.4796 216.00351,1323.4949 134.56077,1219 72.017948,1138.7546 30.314465,1045.0327 12.086642,943.7592 7.6176215,918.92939 6.4871457,909.78981 1.9119914,861.5 0.55376711,847.16422 1.1777656,791.00263 2.8841837,774 9.6260565,706.82446 20.041513,659.38346 39.194292,608.61233 75.180932,513.21716 129.53626,439.49546 207.03122,380.97642 c 49.48104,-37.36478 103.76844,-63.01133 174.74985,-82.55564 15.85347,-4.36516 21.20938,-6.22401 21,-7.28837 -0.49373,-2.50976 -53.851,-26.50409 -85.78107,-38.57506 -22.48783,-8.50138 -22.22515,-8.38403 -21.47669,-9.59507 0.96702,-1.56467 31.06273,-16.00841 47.97669,-23.0253 31.1732,-12.93246 57.23724,-20.162 88.61236,-24.57896 17.66699,-2.48713 66.23662,-2.51248 83.88764,-0.0438 23.96352,3.35159 57.76655,11.77748 78.26415,19.50848 25.50028,9.61784 52.29994,22.75071 68.76981,33.69986 3.81608,2.53692 7.4381,4.3037 8.04894,3.92619 2.18032,-1.34752 -1.33095,-33.90769 -6.16561,-57.17401 -5.59675,-26.93377 -14.33903,-52.88407 -27.84855,-82.66467 C 625.5812,87.28678 625.71825,87.72631 626.27741,78 627.09096,63.848664 632.45513,53.275232 645.20325,40.694893 665.17658,20.984423 703.01684,4.2503199 735,0.98406596 755.45636,-1.1050228 776.88997,5.8556005 789.27983,18.611587 804.62223,34.40735 816.39965,85.764888 820.09808,153 c 1.28824,23.41932 0.73078,72.68739 -1.0965,96.90731 -0.63967,8.4787 -0.71864,14.77563 -0.1919,15.30237 0.52674,0.52674 6.20243,-1.22517 13.79269,-4.25737 38.79746,-15.49906 88.24829,-28.63277 129.89763,-34.49969 41.0255,-5.77904 93.6239,-8.3518 140.6672,-6.88048 16.317,0.51032 29.9663,1.22718 30.3319,1.59302 1.7702,1.77169 -21.6054,42.38364 -35.879,62.33484 -20.3678,28.46954 -50.84,58.95924 -77.3322,77.37658 -2.8666,1.99288 -5.2188,4.29842 -5.2272,5.12342 -0.01,0.99886 4.9051,3.50292 14.7121,7.49508 20.4696,8.33268 56.7243,26.50963 75.3388,37.77255 68.1433,41.23081 125.2269,97.33035 167.1132,164.23237 39.7006,63.41102 67.0267,141.14592 76.8092,218.5 5.0482,39.91854 6.9939,81.198 5.0368,106.85882 -3.968,52.02735 -7.5764,76.11948 -17.1086,114.22958 -11.286,45.1222 -25.0288,82.1399 -46.1878,124.4116 -25.8272,51.598 -61.5802,102.8566 -99.7106,142.9539 -86.1365,90.5795 -188.5252,150.25 -309.5638,180.4086 -37.83335,9.4268 -68.31483,14.2675 -118.5,18.8189 -17.45985,1.5835 -93.84413,3.1411 -95.04702,1.9383 z m -54.95859,-162.6001 c 6.87192,-0.572 13.17192,-1.2468 14,-1.4996 0.82809,-0.2528 6.89321,-1.1583 13.47806,-2.0123 6.58484,-0.8539 12.35356,-1.9337 12.81936,-2.3995 0.46581,-0.4658 1.0679,-9.1182 1.33799,-19.2276 0.6185,-23.1504 1.38689,-26.8354 6.74763,-32.3601 13.79927,-14.2211 41.18632,-9.2708 46.48114,8.4018 0.62779,2.0953 1.14143,10.1219 1.14143,17.8367 0,10.7665 0.30992,14.146 1.33329,14.5387 2.86599,1.0997 23.387,-4.7502 59.66671,-17.0091 10.725,-3.624 21.27202,-7.4215 23.43783,-8.4389 2.16581,-1.0173 4.25843,-1.8497 4.65028,-1.8497 0.39185,0 8.29483,-3.6333 17.56217,-8.0741 9.26735,-4.4408 19.7526,-9.4634 23.30056,-11.1615 3.54795,-1.6981 10.22095,-5.2648 14.82886,-7.9259 4.60792,-2.6612 8.57081,-4.8385 8.80642,-4.8385 1.0259,0 34.56841,-21.1466 40.91388,-25.7938 30.12493,-22.0625 32.17923,-23.7221 57.36407,-46.3435 26.17195,-23.508 41.04753,-39.3625 63.20323,-67.3627 3.0464,-3.85 7.9306,-10.0061 10.8538,-13.6802 2.9231,-3.6741 6.7242,-8.8889 8.4469,-11.5884 1.7226,-2.6995 7.1781,-10.9435 12.1233,-18.3198 4.9452,-7.3764 9.4951,-14.3116 10.111,-15.4116 0.6158,-1.1 2.8046,-4.925 4.8639,-8.5 2.0593,-3.575 7.3166,-13.7 11.6828,-22.5 4.3663,-8.8 8.4105,-16.84804 8.9873,-17.88453 1.9025,-3.41894 12.0201,-26.97353 14.8686,-34.61547 11.1039,-29.78885 17.8674,-50.29457 20.9445,-63.5 1.1535,-4.95 2.5943,-10.8 3.2017,-13 7.3714,-26.69462 14.4192,-80.35478 15.3355,-116.7588 0.8565,-34.03013 -2.1409,-83.60132 -6.6055,-109.2412 -1.0534,-6.05 -2.5946,-14.99987 -3.4249,-19.8886 -0.8302,-4.88872 -1.7243,-9.23624 -1.9869,-9.66114 -0.2626,-0.4249 -1.1809,-4.52503 -2.0406,-9.1114 -3.6371,-19.40317 -12.8441,-49.29436 -26.4399,-85.83886 -5.5383,-14.88659 -18.4808,-42.04571 -22.7168,-47.67023 -8.2426,-10.94417 -70.2188,-41.6129 -109.772,-54.32028 -8.8,-2.82721 -19.375,-6.27772 -23.5,-7.6678 -4.125,-1.39009 -11.8383,-3.79981 -17.14066,-5.35495 l -9.64065,-2.82752 -13.30539,4.25852 c -7.31796,2.34219 -13.47277,4.76066 -13.67734,5.37439 -0.38667,1.15999 6.95616,14.86967 15.38588,28.72676 2.68299,4.41039 6.62145,12.06039 8.75214,17 2.13068,4.93961 4.4588,10.33111 5.17358,11.98111 5.18593,11.97112 14.05489,41.02918 18.09373,59.28186 3.98235,17.99737 4.30839,19.83208 5.90317,33.21814 1.39957,11.74757 2.18788,64.54191 1.06015,71 -0.24011,1.375 -0.73729,6.1 -1.10486,10.5 -1.78172,21.32854 -5.57807,43.85567 -11.68309,69.32607 C 932.19376,748.11302 930.42855,753 928.08485,753 c -1.60499,0 -15.03058,-9.69804 -31.14812,-22.5 -5.53955,-4.4 -18.254,-14.42713 -28.25432,-22.28251 -38.02842,-29.87181 -64.36616,-52.64377 -91.04357,-78.71749 -9.82111,-9.59887 -35.4737,-37.63918 -41.33497,-45.18239 -2.64213,-3.40031 -8.63007,-10.60031 -13.30654,-16 -7.77477,-8.97713 -24.70786,-33.39008 -36.40897,-52.49191 -2.58555,-4.22086 -5.32006,-8.18807 -6.07668,-8.81601 -1.35452,-1.12415 -3.63155,-0.3255 -20.01168,7.01894 -20.36002,9.12893 -62.02156,23.32346 -91,31.00467 -17.45021,4.62547 -30.45983,7.84431 -40,9.89682 -5.5,1.18328 -11.8,2.55301 -14,3.04383 -11.7633,2.62438 -58.48553,9.82224 -78,12.01639 -5.5,0.61841 -12.925,1.5259 -16.5,2.01665 -6.4082,0.87968 -13.49723,1.58561 -46,4.58071 -29.07066,2.67883 -39.41516,3.2488 -41.25,2.2728 -2.86294,-1.52287 -2.08742,-8.65623 3.26509,-30.03265 7.70707,-30.7799 19.83945,-61.89938 31.00355,-79.5239 5.91762,-9.34202 20.5728,-29.65038 27.5462,-38.17203 17.68394,-21.6102 59.15474,-55.74647 81.95789,-67.46282 10.79972,-5.54894 10.99925,-5.89568 2.97727,-5.17383 -10.91446,0.98212 -28.53753,3.40226 -33.5,4.60048 -2.475,0.59761 -6.75,1.44847 -9.5,1.8908 -50.53499,8.12855 -99.14691,25.1353 -146,51.07772 -38.22901,21.16729 -80.37107,56.60408 -106.34253,89.42225 -3.05266,3.85741 -5.83593,7.23848 -6.18504,7.51348 -0.77734,0.61233 -16.38732,21.78644 -20.64215,28 -12.6544,18.47987 -33.45326,59.0583 -44.08012,86 -19.909866,50.47637 -30.38339,97.41767 -35.306511,158.24028 -1.551572,19.16887 -0.706446,74.66837 1.465807,96.25972 7.875774,78.28214 30.797904,151.7682 68.311524,219 17.63481,31.605 22.99979,40.0928 35.71269,56.5 3.62236,4.675 9.61358,12.775 13.31382,18 13.17855,18.609 51.07614,58.8262 61.75251,65.5322 3.3,2.0727 10.275,6.0054 15.5,8.7392 19.04962,9.9671 45.60172,23.3679 49.60258,25.0344 20.37513,8.4867 43.1393,17.2041 53.39742,20.4482 8.62138,2.7264 24.84739,7.151 28.38511,7.7403 3.71566,0.6188 3.85341,0.5458 3.15839,-1.6736 -5.25352,-16.7764 -4.72479,-19.4108 8.77837,-43.7388 5.69091,-10.253 6.69323,-11.3987 12.26351,-14.017 6.20382,-2.9162 18.36677,-2.8971 23.92943,0.037 5.66378,2.9879 9.12568,6.5351 11.99243,12.288 3.01126,6.0428 3.37263,15.3701 0.84066,21.6981 -3.71592,9.287 -12.76318,24.6997 -17.10434,29.1385 -2.54264,2.5998 -4.42511,4.9242 -4.18327,5.1654 1.10265,1.0997 31.07976,6.0111 45.93971,7.5267 25.15886,2.5661 36.19243,3.2885 37.0549,2.426 0.50465,-0.5046 2.04572,-6.0182 3.4246,-12.2524 3.412,-15.4263 6.42482,-19.9921 15.85341,-24.0254 12.72632,-5.4438 26.94834,-0.5143 34.41709,11.9294 2.78486,4.6399 3.25,6.3524 3.25,11.9657 0,3.6029 -0.41151,7.9857 -0.91447,9.7394 -0.64281,2.2413 -0.56854,3.3477 0.25,3.7242 1.25137,0.5757 7.91984,0.2366 27.65886,-1.4064 z m -301.11192,-81.8123 c -9.34412,-4.8815 -13.86576,-12.8828 -13.87689,-24.5562 -0.007,-7.1878 1.49373,-10.4657 8.79531,-19.2126 3.13451,-3.755 7.72411,-9.2975 10.19911,-12.3168 8.54222,-10.4206 20.45277,-13.3198 32.20819,-7.8397 6.76069,3.1517 9.44305,5.7728 12.39474,12.1119 2.79763,6.0083 3.2603,16.6043 0.9649,22.098 -0.78769,1.8852 -5.96233,8.8053 -11.4992,15.378 C 338.9477,1239.2584 334.60239,1242 323.91785,1242 c -5.3796,0 -7.73625,-0.5468 -12.03538,-2.7927 z M 220,1146.4136 c -9.94223,-5.6611 -13.988,-12.5874 -13.96827,-23.9136 0.0206,-11.822 2.55791,-15.4089 20.70812,-29.2741 11.04236,-8.4354 17.01053,-10.7657 25.12871,-9.8115 15.57717,1.8308 24.35749,11.5517 24.46478,27.0856 0.0811,11.7437 -2.00245,14.4991 -21.33334,28.2124 -13.39557,9.5027 -15.19247,10.2897 -23.46144,10.2756 -5.70173,-0.01 -7.89324,-0.4987 -11.53856,-2.5744 z M 675.10103,940.97605 c -6.76046,-1.41791 -22.76818,-9.63131 -27.8631,-14.29628 -6.34598,-5.81046 -11.83235,-14.65955 -14.63266,-23.60136 -4.3697,-13.95312 -4.49384,-11.44301 3.21845,-65.07841 0.51405,-3.575 2.10348,-13.25 3.53206,-21.5 3.19759,-18.46596 8.32469,-50.42376 9.06449,-56.5 0.61505,-5.05173 1.34003,-9.39376 4.9255,-29.5 1.37311,-7.7 4.79518,-28.175 7.6046,-45.5 2.80942,-17.325 6.42105,-38.7 8.02584,-47.5 1.60479,-8.8 3.19828,-18.25 3.54108,-21 0.59459,-4.76984 3.12038,-18.05857 4.13136,-21.73603 0.77371,-2.81437 6.32372,-7.76397 8.70577,-7.76397 5.70482,0 9.01402,5.17733 10.5727,16.54129 0.60039,4.37729 2.64439,17.18371 4.54221,28.45871 1.89783,11.275 6.43153,38.5 10.07489,60.5 8.76611,52.93305 9.13655,55.12813 11.55995,68.5 1.14629,6.325 3.35196,19.825 4.90149,30 1.54953,10.175 4.17826,26.6 5.84164,36.5 9.22123,54.88253 9.80071,61.16379 6.64234,72 -2.68591,9.21521 -8.15416,19.265 -13.63649,25.06176 -5.17711,5.47403 -14.68987,11.11358 -24.35592,14.43919 -6.53377,2.24795 -20.21455,3.27162 -26.3962,1.9751 z M 176.8125,931.31689 c 0.72187,-0.28887 1.58437,-0.25335 1.91667,0.0789 0.33229,0.33229 -0.25834,0.56864 -1.3125,0.52522 -1.16495,-0.048 -1.4019,-0.28494 -0.60417,-0.60416 z M 206,923.62244 c 0,-0.20765 0.7875,-0.99515 1.75,-1.75 1.58606,-1.24387 1.62143,-1.2085 0.37756,0.37756 C 206.82119,923.91575 206,924.44548 206,923.62244 Z m 5.56429,-6.91557 c 0.37553,-0.98622 0.93469,-1.54122 1.24258,-1.23333 0.30789,0.30789 6.4e-4,1.11479 -0.68278,1.79313 -0.98762,0.98026 -1.10248,0.8654 -0.5598,-0.5598 z M 214.03063,911.5 c 0,-1.1 0.43621,-2.675 0.96937,-3.5 0.80271,-1.2421 0.96937,-1.15614 0.96937,0.5 0,1.1 -0.43621,2.675 -0.96937,3.5 -0.80271,1.2421 -0.96937,1.15614 -0.96937,-0.5 z M 155.15789,909 c 0,-1.375 0.22698,-1.9375 0.50439,-1.25 0.27741,0.6875 0.27741,1.8125 0,2.5 -0.27741,0.6875 -0.50439,0.125 -0.50439,-1.25 z m -1.59085,-5.132 c -2.24574,-10.02829 -3.65741,-19.20403 -3.38772,-22.01984 0.19851,-2.07258 1.17289,1.76832 2.55757,10.08162 1.23029,7.38638 2.03969,13.62698 1.79867,13.868 -0.24102,0.24102 -0.67686,-0.62738 -0.96852,-1.92978 z m 62.14407,-4.368 c -0.35991,-3.3 -0.95405,-8.025 -1.32033,-10.5 -0.36627,-2.475 -0.29856,-4.15702 0.15049,-3.73781 1.25272,1.16947 3.14853,14.91575 2.4463,17.73781 -0.46047,1.85046 -0.79211,0.9411 -1.27646,-3.5 z M 212.15789,876 c 0,-1.375 0.22698,-1.9375 0.50439,-1.25 0.27741,0.6875 0.27741,1.8125 0,2.5 -0.27741,0.6875 -0.50439,0.125 -0.50439,-1.25 z m -63.07894,-3.58333 c 0.048,-1.16495 0.28494,-1.4019 0.60416,-0.60417 0.28887,0.72187 0.25335,1.58438 -0.0789,1.91667 -0.3323,0.33229 -0.56864,-0.25834 -0.52522,-1.3125 z M 148.232,864 c 0,-1.925 0.2058,-2.7125 0.45733,-1.75 0.25152,0.9625 0.25152,2.5375 0,3.5 -0.25153,0.9625 -0.45733,0.175 -0.45733,-1.75 z m 61.40724,-0.77471 c -0.26334,-0.42609 -0.11096,-2.33859 0.33862,-4.25 0.44958,-1.91141 0.86962,-2.57529 0.93343,-1.47529 0.0638,1.1 0.38736,3.0125 0.719,4.25 0.5681,2.11988 -0.91398,3.21804 -1.99105,1.47529 z m -62.56029,-6.80862 c 0.048,-1.16495 0.28494,-1.4019 0.60416,-0.60417 0.28887,0.72187 0.25335,1.58438 -0.0789,1.91667 -0.3323,0.33229 -0.56864,-0.25834 -0.52522,-1.3125 z m 63,-3 c 0.048,-1.16495 0.28494,-1.4019 0.60416,-0.60417 0.28887,0.72187 0.25335,1.58438 -0.0789,1.91667 -0.3323,0.33229 -0.56864,-0.25834 -0.52522,-1.3125 z M 146.70662,849.125 C 146.31798,847.26875 146,844.13112 146,842.15249 c 0,-3.41719 0.0722,-3.4944 1.44078,-1.54051 1.0626,1.51708 1.24807,3.34723 0.70662,6.97251 -0.73369,4.91237 -0.73461,4.91336 -1.44078,1.54051 z M 209.27236,842 c 0,-2.475 0.19502,-3.4875 0.43337,-2.25 0.23836,1.2375 0.23836,3.2625 0,4.5 -0.23835,1.2375 -0.43337,0.225 -0.43337,-2.25 z m -63.63611,-6.31314 c -0.68455,-2.72748 0.038,-27.69442 0.82421,-28.48066 C 146.75721,806.90946 147,813.71667 147,822.33333 147,830.95 146.82378,838 146.60841,838 c -0.21538,0 -0.65285,-1.04091 -0.97216,-2.31314 z M 209.19495,834.5 c 0.0204,-1.65 0.2445,-2.20394 0.49804,-1.23097 0.25354,0.97297 0.23687,2.32297 -0.0371,3 -0.27393,0.67703 -0.48137,-0.11903 -0.46099,-1.76903 z m 0,-12 c 0.0204,-1.65 0.2445,-2.20394 0.49804,-1.23097 0.25354,0.97297 0.23687,2.32297 -0.0371,3 -0.27393,0.67703 -0.48137,-0.11903 -0.46099,-1.76903 z m -0.116,-13.08333 c 0.048,-1.16495 0.28494,-1.4019 0.60416,-0.60417 0.28887,0.72187 0.25335,1.58438 -0.0789,1.91667 -0.3323,0.33229 -0.56864,-0.25834 -0.52522,-1.3125 z M 146.4526,798.42423 c 0.70089,-8.8536 1.5474,-9.48266 1.5474,-1.14991 0,3.6342 -0.46829,6.89706 -1.04064,7.2508 -0.70074,0.43308 -0.86626,-1.55965 -0.50676,-6.10089 z m 63.62635,1.99244 c 0.048,-1.16495 0.28494,-1.4019 0.60416,-0.60417 0.28887,0.72187 0.25335,1.58438 -0.0789,1.91667 -0.3323,0.33229 -0.56864,-0.25834 -0.52522,-1.3125 z M 210.19929,794.5 c -0.0281,-1.65 0.30928,-5.025 0.74967,-7.5 0.59061,-3.31925 0.8141,-3.71284 0.85175,-1.5 0.0281,1.65 -0.30928,5.025 -0.74967,7.5 -0.59061,3.31925 -0.8141,3.71284 -0.85175,1.5 z m -62.12034,-8.08333 c 0.048,-1.16495 0.28494,-1.4019 0.60416,-0.60417 0.28887,0.72187 0.25335,1.58438 -0.0789,1.91667 -0.3323,0.33229 -0.56864,-0.25834 -0.52522,-1.3125 z M 148.58688,777.5 c 0.36816,-2.75 0.83672,-5.1875 1.04125,-5.41667 0.89578,-1.00369 0.23755,7.56827 -0.6847,8.91667 -0.72856,1.06522 -0.83191,0.0507 -0.35655,-3.5 z m 63.86417,-4.10887 c 1.04678,-8.60364 6.37836,-36.78823 7.47888,-39.53594 l 0.9433,-2.35519 0.0634,2.5066 c 0.0349,1.37863 -0.3911,4.07863 -0.9466,6 -1.4782,5.11288 -5.99001,31.38646 -5.99001,34.88157 0,1.64659 -0.50979,3.30886 -1.13286,3.69394 -0.82436,0.50948 -0.93767,-0.90411 -0.41609,-5.19098 z m -62.3721,-4.97446 c 0.048,-1.16495 0.28494,-1.4019 0.60416,-0.60417 0.28887,0.72187 0.25335,1.58438 -0.0789,1.91667 -0.3323,0.33229 -0.56864,-0.25834 -0.52522,-1.3125 z M 151.232,761 c 0,-1.925 0.2058,-2.7125 0.45733,-1.75 0.25152,0.9625 0.25152,2.5375 0,3.5 -0.25153,0.9625 -0.45733,0.175 -0.45733,-1.75 z m 0.84695,-6.58333 c 0.048,-1.16495 0.28494,-1.4019 0.60416,-0.60417 0.28887,0.72187 0.25335,1.58438 -0.0789,1.91667 -0.3323,0.33229 -0.56864,-0.25834 -0.52522,-1.3125 z m 1.46917,-7.50897 c 0.97845,-8.52415 3.42966,-20.03751 8.38996,-39.4077 2.56947,-10.03389 3.87764,-14.24182 7.61665,-24.5 0.70164,-1.925 1.54945,-4.35191 1.88403,-5.39313 0.33457,-1.04122 0.85788,-1.64356 1.1629,-1.33855 0.30502,0.30502 -1.00734,5.20693 -2.91635,10.89313 -1.90901,5.6862 -3.95123,12.13855 -4.53827,14.33855 -0.58704,2.2 -2.03034,7.41848 -3.20733,11.59663 -1.177,4.17814 -3.66521,14.52814 -5.52936,23 -1.86415,8.47185 -3.15216,13.33683 -2.86223,10.81107 z M 230.0856,700 c -0.0302,-0.825 0.38124,-2.175 0.9144,-3 1.18132,-1.82797 1.18132,-0.24909 0,2.5 -0.56668,1.31874 -0.87815,1.48906 -0.9144,0.5 z m 1.99535,-5.55652 c -0.17941,-2.34167 11.68177,-31.01409 12.49392,-30.20195 0.28853,0.28853 -1.52278,5.08005 -4.02514,10.64781 -2.50235,5.56776 -4.56153,10.68288 -4.57595,11.36693 -0.0348,1.65092 -3.78873,9.54597 -3.89283,8.18721 z M 173.19435,674 c 0.28215,-0.825 1.51391,-4.53261 2.73724,-8.23914 1.22333,-3.70652 2.63918,-6.99558 3.14633,-7.30901 0.50714,-0.31344 0.92208,-0.33004 0.92208,-0.0369 0,0.94096 -6.15254,16.06648 -6.74623,16.58505 -0.31484,0.275 -0.34158,-0.175 -0.0594,-1 z m 73.50105,-15.48744 c 0.91468,-1.9181 1.86797,-3.28253 2.11843,-3.03207 0.68557,0.68558 -1.92645,6.51951 -2.91897,6.51951 -0.47438,0 -0.11413,-1.56935 0.80054,-3.48744 z m -65.62958,-4.03712 c -0.21223,-3.30374 13.62117,-33.0274 20.92335,-44.95774 2.06476,-3.37343 4.0543,-7.07931 4.4212,-8.2353 0.36689,-1.15598 1.28952,-2.61837 2.05027,-3.24974 0.76076,-0.63137 -3.89451,9.3405 -10.34504,22.1597 -6.45053,12.8192 -12.91078,26.00764 -14.3561,29.30764 -1.44533,3.3 -2.65748,5.53895 -2.69368,4.97544 z M 268.34538,618.25 c 12.31157,-19.92518 18.09952,-28.4153 18.51723,-27.16218 0.20523,0.61569 -0.58519,2.31031 -1.75648,3.76581 -1.1713,1.4555 -5.31879,7.48387 -9.21665,13.39637 -3.89786,5.9125 -7.29413,10.75 -7.54727,10.75 -0.25313,0 -0.25171,-0.3375 0.003,-0.75 z M 214.05404,588.5 c 0.0127,-1.32306 2.80173,-4.97756 3.36723,-4.41206 0.24307,0.24307 -0.41727,1.56022 -1.46743,2.927 -1.05015,1.36678 -1.90506,2.03506 -1.8998,1.48506 z M 219,580.65951 c 0,-0.40727 0.86043,-1.95977 1.91207,-3.45 1.05163,-1.49023 3.18913,-4.68219 4.75,-7.09324 1.56086,-2.41105 3.96293,-6.08109 5.33793,-8.15565 C 234.46301,556.73574 245.07423,543 245.64758,543 c 0.68714,0 -0.32635,1.51757 -7.68013,11.5 -3.64652,4.95 -9.01732,12.6 -11.93509,17 C 220.34876,580.07085 219,581.82759 219,580.65951 Z m 81.3753,-30.21893 C 299.78301,548.54826 299.64552,547 300.06975,547 c 0.80966,0 2.38955,5.87403 1.7515,6.51208 -0.20299,0.20299 -0.85367,-1.17919 -1.44595,-3.0715 z m -6.68821,-11.2453 c -3.16345,-3.30193 -3.63205,-5.36043 -0.59447,-2.61146 1.96048,1.77421 4.40114,5.41618 3.62965,5.41618 -0.19145,0 -1.55728,-1.26212 -3.03518,-2.80472 z M 251,536.5 c 0.68469,-0.825 1.62567,-1.5 2.09106,-1.5 0.46539,0 0.58715,0.675 0.27057,1.5 -0.31659,0.825 -1.25756,1.5 -2.09106,1.5 -1.23369,0 -1.284,-0.27889 -0.27057,-1.5 z m 18.8125,-8.18311 c 0.72187,-0.28887 1.58438,-0.25335 1.91667,0.0789 0.33229,0.33229 -0.25834,0.56864 -1.3125,0.52522 -1.16495,-0.048 -1.4019,-0.28494 -0.60417,-0.60416 z M 889.30135,638.92142 C 890.5279,632.3866 889.33574,592.11919 887.55692,580 884.21873,557.25668 874.55836,525.18936 864.20982,502.5 848.22057,467.44324 824.89999,433.5283 790.25,394.9408 785.1625,389.27517 781,384.32322 781,383.93646 c 0,-1.06071 3.95968,-1.90733 9,-1.9243 6.50722,-0.0219 36.51417,-3.61318 50.41721,-6.03402 15.82346,-2.75523 38.959,-8.79132 55.58279,-14.50163 47.13541,-16.19112 83.82545,-38.36405 123,-74.33273 9.4698,-8.69484 8.9025,-8.93393 -16.2421,-6.84477 -41.52341,3.45001 -79.13714,10.64114 -116.7579,22.32218 -41.34372,12.83701 -85.48974,35.22376 -124.20528,62.98535 -6.43791,4.6164 -12.17541,8.39346 -12.75,8.39346 -1.52047,0 -1.3519,-2.29239 1.87521,-25.50076 9.58913,-68.96196 12.63817,-111.53328 11.78053,-164.48179 C 762.1281,148.68191 760.79081,131.08099 756.92476,108 754.71175,94.787946 747.82411,66.408384 746.0062,63.011584 c -2.22458,-4.15666 -22.6567,-1.678911 -36.44705,4.419836 -6.57508,2.907815 -20.47219,12.178384 -21.23466,14.165352 -0.30758,0.801555 2.832,9.432689 6.97686,19.180298 18.73878,44.06868 28.91162,85.00801 33.84947,136.22293 1.518,15.74459 1.46532,64.02943 -0.09,82.5 -1.9673,23.36286 -7.28136,56.5 -9.06066,56.5 -0.45877,0 -3.90137,-3.9375 -7.6502,-8.75 C 703.49011,355.87636 683.03227,334.86815 671,324.78762 658.54596,314.35374 642.58434,303.11202 626.5,293.4464 580.72493,265.93865 525.39567,249.9559 476.14405,250.01365 c -16.93213,0.0199 -19.89322,1.39126 -11.5719,5.3594 6.50398,3.10152 33.18714,19.37097 44.92785,27.39374 20.95193,14.31706 35.92924,26.59854 62.39029,51.16043 C 583.56553,344.7645 611,374.25506 611,375.96803 c 0,0.52518 -1.9125,1.4448 -4.25,2.04359 -39.12928,10.02359 -66.32771,20.5909 -94.81743,36.83908 -35.31565,20.14113 -61.49334,42.85739 -81.47186,70.69898 C 423.97631,494.58619 417,506.75298 417,509.02536 c 0,1.54615 9.41974,0.81958 34,-2.62252 68.30812,-9.56553 121.04366,-22.79372 174,-43.64621 18.39145,-7.24195 56.46636,-26.08217 70.40116,-34.83589 6.85729,-4.30769 10.31251,-5.94327 11.23924,-5.32028 0.73594,0.49475 6.10741,10.57454 11.9366,22.39954 11.42731,23.18128 19.47419,37.19363 31.29773,54.5 8.21733,12.0279 28.23046,38.49444 36.296,48 10.60499,12.49839 35.56515,38.99591 48.1974,51.166 19.65036,18.93144 51.12613,45.58334 53.11761,44.97698 0.54216,-0.16508 1.35918,-2.28978 1.81561,-4.72156 z"
         id="path3" />
      <path
         style="fill:#080403"
         d="m 667.95298,1483.6197 c -0.26816,-0.2682 -7.22978,-0.9854 -15.47027,-1.5938 -72.09767,-5.323 -130.57388,-16.671 -193.14105,-37.4816 C 326.86046,1400.4796 216.00351,1323.4949 134.56077,1219 72.017948,1138.7546 30.314465,1045.0327 12.086642,943.7592 7.6176215,918.92939 6.4871457,909.78981 1.9119914,861.5 0.55376711,847.16422 1.1777656,791.00263 2.8841837,774 9.6260565,706.82446 20.041513,659.38346 39.194292,608.61233 75.180932,513.21716 129.53626,439.49546 207.03122,380.97642 c 49.48104,-37.36478 103.76844,-63.01133 174.74985,-82.55564 15.85347,-4.36516 21.20938,-6.22401 21,-7.28837 -0.49373,-2.50976 -53.851,-26.50409 -85.78107,-38.57506 -22.48783,-8.50138 -22.22515,-8.38403 -21.47669,-9.59507 0.96702,-1.56467 31.06273,-16.00841 47.97669,-23.0253 31.1732,-12.93246 57.23724,-20.162 88.61236,-24.57896 17.66699,-2.48713 66.23662,-2.51248 83.88764,-0.0438 23.96352,3.35159 57.76655,11.77748 78.26415,19.50848 25.50028,9.61784 52.29994,22.75071 68.76981,33.69986 3.81608,2.53692 7.4381,4.3037 8.04894,3.92619 2.18032,-1.34752 -1.33095,-33.90769 -6.16561,-57.17401 -5.59675,-26.93377 -14.33903,-52.88407 -27.84855,-82.66467 C 625.5812,87.28678 625.71825,87.72631 626.27741,78 627.09096,63.848664 632.45513,53.275232 645.20325,40.694893 665.17658,20.984423 703.01684,4.2503199 735,0.98406596 755.45636,-1.1050228 776.88997,5.8556005 789.27983,18.611587 804.62223,34.40735 816.39965,85.764888 820.09808,153 c 1.28824,23.41932 0.73078,72.68739 -1.0965,96.90731 -0.63967,8.4787 -0.71864,14.77563 -0.1919,15.30237 0.52674,0.52674 6.20243,-1.22517 13.79269,-4.25737 38.79746,-15.49906 88.24829,-28.63277 129.89763,-34.49969 41.0255,-5.77904 93.6239,-8.3518 140.6672,-6.88048 16.317,0.51032 29.9663,1.22718 30.3319,1.59302 1.7702,1.77169 -21.6054,42.38364 -35.879,62.33484 -20.3678,28.46954 -50.84,58.95924 -77.3322,77.37658 -2.8666,1.99288 -5.2188,4.29842 -5.2272,5.12342 -0.01,0.99886 4.9051,3.50292 14.7121,7.49508 20.4696,8.33268 56.7243,26.50963 75.3388,37.77255 68.1433,41.23081 125.2269,97.33035 167.1132,164.23237 39.7006,63.41102 67.0267,141.14592 76.8092,218.5 5.0482,39.91854 6.9939,81.198 5.0368,106.85882 -3.968,52.02735 -7.5764,76.11948 -17.1086,114.22958 -11.286,45.1222 -25.0288,82.1399 -46.1878,124.4116 -25.8272,51.598 -61.5802,102.8566 -99.7106,142.9539 -86.1365,90.5795 -188.5252,150.25 -309.5638,180.4086 -37.83335,9.4268 -68.31483,14.2675 -118.5,18.8189 -17.45985,1.5835 -93.84413,3.1411 -95.04702,1.9383 z M 765.5,1407.5544 c 21.28978,-1.7816 36.48443,-3.6699 53,-6.5865 3.3,-0.5828 7.575,-1.2903 9.5,-1.5723 1.925,-0.282 5.525,-0.9679 8,-1.5242 2.475,-0.5563 6.3,-1.3984 8.5,-1.8714 15.28156,-3.2856 38.30009,-8.9559 44.5,-10.962 3.025,-0.9788 7.75,-2.4834 10.5,-3.3435 61.89186,-19.3574 127.3362,-54.2089 178.0955,-94.8424 45.1352,-36.1313 86.1598,-81.548 117.2946,-129.8521 14.3264,-22.2267 36.4403,-63.1094 41.5146,-76.7495 0.7674,-2.0628 2.8261,-7.1255 4.5748,-11.2505 5.0317,-11.8692 10.8917,-27.7608 13.6437,-37 6.8572,-23.0217 8.6801,-29.5672 11.866,-42.60805 16.9874,-69.53335 17.6913,-154.95336 1.8657,-226.39195 -2.2666,-10.23154 -3.9175,-16.66465 -8.8535,-34.5 -0.7611,-2.75 -3.8125,-12.2 -6.7808,-21 -23.695,-70.24647 -65.1401,-134.83389 -116.9037,-182.18061 C 1095.391,488.34296 1053.3002,462.41924 997,439.82212 976.95482,431.77662 927.5863,416 922.45534,416 c -3.36624,0 -30.61725,9.25835 -31.1219,10.57346 -0.28404,0.7402 1.70333,5.07648 4.41637,9.63618 17.22184,28.94395 24.8734,45.02105 33.8159,71.05232 21.28947,61.97283 24.1451,126.9677 8.8856,202.23804 -4.8741,24.0424 -8.80042,39.78304 -10.02527,40.19132 C 926.301,750.39967 851.0301,691.48198 820,664.82171 765.81865,618.27047 715.33344,560.10739 687.64231,512.33486 c -2.60309,-4.49083 -5.29907,-8.63504 -5.99108,-9.20935 -0.91525,-0.75959 -5.78122,0.96976 -17.85301,6.34494 C 614.13641,531.58322 548.6631,550.44252 487,560.39641 c -29.46451,4.75627 -72.10569,10.04269 -101,12.52143 -6.325,0.5426 -19.67655,1.745 -29.67012,2.672 -9.99356,0.92699 -18.94193,1.38927 -19.88527,1.02728 -1.4372,-0.55151 -1.61459,-1.51378 -1.09461,-5.93802 1.53084,-13.025 7.87751,-36.98213 15.21921,-57.44878 22.23912,-61.99657 71.24317,-116.37843 136.66727,-151.66545 4.80506,-2.59165 8.99412,-5.12897 9.30901,-5.63848 1.76961,-2.86328 -40.2527,2.02488 -70.04549,8.1479 -75.26055,15.46756 -134.51164,42.15318 -187.77976,84.57259 -14.78151,11.77108 -44.95286,41.75289 -57.21253,56.85312 -50.15495,61.77581 -84.506293,140.27267 -98.463211,225 -8.06064,48.93319 -9.771391,94.35725 -5.460957,145 6.740437,79.19256 30.633658,157.8969 68.536128,225.7581 41.69545,74.6523 93.13178,133.2273 161.88033,184.3471 22.24798,16.5431 46.65057,31.7785 75.76898,47.3052 14.86177,7.9247 44.244,22.0896 45.82041,22.0896 0.28619,0 2.40815,0.8524 4.71547,1.8943 52.98482,23.9249 135.69283,44.1295 205.19514,50.1266 37.13394,3.2041 91.34194,3.4337 126,0.5335 z m -94.23605,-37.6093 c -6.04261,-2.394 -11.3615,-8.1786 -13.82188,-15.032 -1.38066,-3.8459 -1.50409,-8.9761 -0.96021,-39.9131 0.34324,-19.525 1.11048,-37.7015 1.70496,-40.3922 C 660.24534,1265.2907 671.45787,1257 682,1257 c 10.02676,0 21.37861,8.1373 23.89627,17.1295 1.79003,6.3934 1.01496,75.5911 -0.90818,81.0818 -4.60215,13.1395 -20.36537,20.0263 -33.72414,14.7338 z m 130.72958,-8.8201 c -7.06134,-2.3152 -12.29064,-6.7047 -15.45627,-12.974 -2.5647,-5.0793 -7.72252,-32.6222 -6.92879,-37 2.14457,-11.8286 12.21518,-20.151 24.38381,-20.151 3.33958,0 7.745,0.6978 9.78984,1.5507 4.29222,1.7902 9.74588,6.7224 11.82734,10.6963 1.61862,3.0903 7.38383,30.6255 7.38114,35.253 -0.005,8.1827 -5.40481,16.63 -13.16008,20.5865 -4.2652,2.1759 -14.01831,3.2906 -17.83699,2.0385 z m -255.59004,-7.204 c -5.30459,-1.5394 -12.04625,-8.3503 -14.34377,-14.4909 -1.13285,-3.0278 -2.05972,-6.5685 -2.05972,-7.8681 0,-3.5452 6.80353,-31.2814 8.45788,-34.4805 2.30183,-4.4513 8.02567,-8.8165 14.05097,-10.7158 4.79861,-1.5126 6.38236,-1.5924 11.28651,-0.5685 10.92464,2.2809 19.1383,11.1272 19.95989,21.4973 0.43688,5.5142 -3.12346,22.2691 -6.84662,32.2202 -2.1767,5.8177 -7.82711,11.7176 -13.48695,14.0825 -3.71492,1.5522 -12.22733,1.7141 -17.01819,0.3238 z m 377.05836,-31.599 c -1.12099,-0.2231 -4.27099,-2.0931 -7,-4.1556 -4.50563,-3.4052 -5.58296,-5.093 -11.71703,-18.3564 -3.71534,-8.0335 -7.02423,-16.5694 -7.35307,-18.9685 -2.37725,-17.344 17.14842,-32.0026 33.18332,-24.9121 6.81445,3.0134 10.0027,6.3508 14.39676,15.0706 11.68871,23.1956 12.88505,33.6619 4.94754,43.2844 -4.58605,5.5596 -11.51014,8.7472 -18.63613,8.5794 -3.18078,-0.075 -6.70041,-0.3187 -7.82139,-0.5418 z M 424.59073,1309.4267 C 414.97776,1305.9046 409,1297.2234 409,1286.7851 c 0,-5.2976 0.68645,-7.1497 7.61783,-20.5537 8.58299,-16.5978 9.86832,-18.2996 15.99816,-21.1809 9.69573,-4.5575 23.26953,-1.3326 29.27291,6.9548 7.28538,10.0572 6.91031,16.6331 -1.95777,34.3244 -3.53712,7.0563 -7.88133,14.5385 -9.65379,16.627 -6.1715,7.272 -16.43911,9.8583 -25.68661,6.47 z m 610.40277,-55.361 c -4.4759,-1.3616 -8.4293,-3.8261 -11.5981,-7.2304 -5.7748,-6.2038 -18.7581,-24.2056 -20.0369,-27.7819 -4.91138,-13.7343 5.1932,-28.9144 20.4453,-30.7147 10.8654,-1.2826 16.8851,2.8248 30.1077,20.5427 9.1134,12.2117 10.1435,14.4096 10.2322,21.8303 0.077,6.4487 -1.3601,10.3908 -5.8223,15.9708 -5.1342,6.4203 -15.6019,9.7333 -23.3279,7.3832 z M 318.5,1238.8991 c -5.61471,-1.349 -13.05794,-7.1123 -15.58653,-12.0687 -3.16925,-6.2123 -3.63956,-14.4353 -1.13859,-19.9076 1.91715,-4.1949 11.24238,-16.039 19.0105,-24.1456 7.47375,-7.7994 17.34582,-9.792 26.77023,-5.4035 12.00023,5.588 17.76251,19.888 12.54256,31.1263 -2.75562,5.9327 -20.46355,26.1356 -24.88519,28.3913 -4.75919,2.428 -11.56216,3.2452 -16.71298,2.0078 z m 805.2721,-79.3064 c -4.738,-1.275 -18.0829,-10.6721 -28.6586,-20.1806 -6.2566,-5.6252 -8.6132,-11.2813 -7.8364,-18.8079 1.3739,-13.3116 10.7575,-22.0269 23.7229,-22.0335 8.1329,-0 10.0067,0.9761 25.2365,13.2011 14.216,11.4112 16.1901,14.4182 16.2338,24.7282 0.025,5.882 -0.4133,7.7536 -2.7438,11.7181 -3.2637,5.5522 -9.3659,10.008 -15.9193,11.6244 -2.5811,0.6366 -4.8311,1.1271 -5,1.09 -0.169,-0.037 -2.4347,-0.64 -5.0351,-1.3398 z m -899.1446,-14.0609 c -17.07614,-6.0869 -22.05976,-30.4347 -8.3799,-40.9405 22.71677,-17.4459 24.7888,-18.5962 33.47028,-18.5815 14.038,0.024 24.28212,10.3589 24.28212,24.4979 0,9.7706 -2.58846,13.1712 -19.39009,25.4738 -15.09936,11.0561 -20.72822,12.8491 -29.98241,9.5503 z M 1170.5,1038.2803 c -12.9026,-4.9187 -15.6364,-6.3523 -19.551,-10.2527 -11.5733,-11.5311 -8.0217,-29.73319 7.3529,-37.68374 5.0762,-2.625 15.1104,-1.2453 29.6981,4.08348 14.416,5.26606 16.4322,6.54796 20.4418,12.99636 7.0712,11.3724 3.0727,27.2737 -8.3808,33.3293 -8.188,4.3291 -12.7108,3.9508 -29.561,-2.4727 z M 673.11181,937.41932 C 657.22544,933.14696 644.25979,922.72667 637.7505,909 c -5.58583,-11.77931 -6.8939,-21.20796 -4.77493,-34.41809 0.53656,-3.34505 1.9084,-12.38191 3.04853,-20.08191 5.28187,-35.6718 24.54428,-153.33176 38.47244,-235 3.55106,-20.82178 4.40711,-24.10399 7.02278,-26.92634 3.02639,-3.26553 5.78794,-3.2698 8.34982,-0.0129 2.364,3.00534 2.74139,4.80961 8.14478,38.93924 2.26397,14.3 5.86248,36.35 7.99668,49 9.65776,57.2441 18.14935,108.2784 20.38278,122.5 1.33881,8.525 4.55376,28.325 7.14433,44 6.85081,41.45273 6.48615,50.72255 -2.60285,66.16459 -11.30983,19.21521 -36.80156,29.90809 -57.82305,24.25473 z m 525.80469,-22.92185 c -7.5245,-0.74483 -14.0708,-1.95139 -16.283,-3.00115 -7.1759,-3.4052 -12.6335,-12.62068 -12.6335,-21.33253 0,-8.26326 6.422,-18.12206 13.9079,-21.3509 4.3806,-1.88946 5.3751,-1.92446 21.5921,-0.75998 10.2283,0.73446 18.2776,1.80104 20.2073,2.67759 9.724,4.41698 15.4009,17.7835 12.349,29.07617 -1.4319,5.29845 -7.2117,11.89354 -12.5563,14.32767 -4.5747,2.08347 -8.6428,2.13904 -26.5835,0.36313 z M 889.30135,638.92142 C 890.5279,632.3866 889.33574,592.11919 887.55692,580 884.21873,557.25668 874.55836,525.18936 864.20982,502.5 848.22057,467.44324 824.89999,433.5283 790.25,394.9408 785.1625,389.27517 781,384.32322 781,383.93646 c 0,-1.06071 3.95968,-1.90733 9,-1.9243 6.50722,-0.0219 36.51417,-3.61318 50.41721,-6.03402 15.82346,-2.75523 38.959,-8.79132 55.58279,-14.50163 47.13541,-16.19112 83.82545,-38.36405 123,-74.33273 9.4698,-8.69484 8.9025,-8.93393 -16.2421,-6.84477 -41.52341,3.45001 -79.13714,10.64114 -116.7579,22.32218 -41.34372,12.83701 -85.48974,35.22376 -124.20528,62.98535 -6.43791,4.6164 -12.17541,8.39346 -12.75,8.39346 -1.52047,0 -1.3519,-2.29239 1.87521,-25.50076 9.58913,-68.96196 12.63817,-111.53328 11.78053,-164.48179 C 762.1281,148.68191 760.79081,131.08099 756.92476,108 754.71175,94.787946 747.82411,66.408384 746.0062,63.011584 c -2.22458,-4.15666 -22.6567,-1.678911 -36.44705,4.419836 -6.57508,2.907815 -20.47219,12.178384 -21.23466,14.165352 -0.30758,0.801555 2.832,9.432689 6.97686,19.180298 18.73878,44.06868 28.91162,85.00801 33.84947,136.22293 1.518,15.74459 1.46532,64.02943 -0.09,82.5 -1.9673,23.36286 -7.28136,56.5 -9.06066,56.5 -0.45877,0 -3.90137,-3.9375 -7.6502,-8.75 C 703.49011,355.87636 683.03227,334.86815 671,324.78762 658.54596,314.35374 642.58434,303.11202 626.5,293.4464 580.72493,265.93865 525.39567,249.9559 476.14405,250.01365 c -16.93213,0.0199 -19.89322,1.39126 -11.5719,5.3594 6.50398,3.10152 33.18714,19.37097 44.92785,27.39374 20.95193,14.31706 35.92924,26.59854 62.39029,51.16043 C 583.56553,344.7645 611,374.25506 611,375.96803 c 0,0.52518 -1.9125,1.4448 -4.25,2.04359 -39.12928,10.02359 -66.32771,20.5909 -94.81743,36.83908 -35.31565,20.14113 -61.49334,42.85739 -81.47186,70.69898 C 423.97631,494.58619 417,506.75298 417,509.02536 c 0,1.54615 9.41974,0.81958 34,-2.62252 68.30812,-9.56553 121.04366,-22.79372 174,-43.64621 18.39145,-7.24195 56.46636,-26.08217 70.40116,-34.83589 6.85729,-4.30769 10.31251,-5.94327 11.23924,-5.32028 0.73594,0.49475 6.10741,10.57454 11.9366,22.39954 11.42731,23.18128 19.47419,37.19363 31.29773,54.5 8.21733,12.0279 28.23046,38.49444 36.296,48 10.60499,12.49839 35.56515,38.99591 48.1974,51.166 19.65036,18.93144 51.12613,45.58334 53.11761,44.97698 0.54216,-0.16508 1.35918,-2.28978 1.81561,-4.72156 z"
         id="path2" />
    </g>
  </g>
</svg>
